# xmcd
#
# Track frame offsets: 
#        150
#        36972
#        73500
#        108851
#        142541
#        175127
#        227601
#        256805
#        293609
#        324026
#
# Disc length: 4781 seconds
#
# Revision: 2
# Processed by: cddbd v1.5.2PL0 Copyright (c) Steve Scherf et al.
# Submitted via: ExactAudioCopy v1.0b3
#
DISCID=7512ab0a
DTITLE=Various Artist - D.Trance Vol. 32 - CD 1
DYEAR=2005
DGENRE=Blues
TTITLE0=Dave 202 Pres. Powerface - Abyss (Original MIx)
TTITLE1=Dave Joy - Fourth Joyride (Buckle Up) (Original Mix)
TTITLE2=Stimulant DJs - The Wicked DJ
TTITLE3=Atmosphere - Storm (Original Mix)
TTITLE4=Phil York - Glide (Original Mix)
TTITLE5=Rank 1 - Opus 17
TTITLE6=DJ Lee - Fight Hard (Club Mix)
TTITLE7=Global Cee - Alive (Global Mix)
TTITLE8=Tom DJ - So High (Original Mix)
TTITLE9=Out Now - Future Shock
EXTD=YEAR: 2005
EXTT0=
EXTT1=
EXTT2=
EXTT3=
EXTT4=
EXTT5=
EXTT6=
EXTT7=
EXTT8=
EXTT9=
PLAYORDER=
